<svg width="42" height="37" viewBox="0 0 42 37" fill="none" xmlns="http://www.w3.org/2000/svg">
<g clip-path="url(#clip0_15_199)">
<path d="M42 14.4357L27.2145 23.2672C27.0973 23.3382 26.9789 23.4069 26.8101 23.5054C25.495 21.7881 24.1941 20.0776 22.8582 18.3294L38.8086 9.19217C38.8952 9.32497 38.9795 9.44747 39.0574 9.57455C39.9502 11.043 40.8427 12.5119 41.7348 13.9812C41.8137 14.1105 41.9112 14.2273 42 14.3498V14.4357Z" fill="black"/>
<path d="M5.46326 7.89048L11.6071 4.73293C14.6305 3.17819 17.6557 1.6265 20.6827 0.0778703C20.8703 -0.013537 21.0846 -0.0246342 21.28 0.0469565C26.2958 2.50309 31.3068 4.96915 36.3131 7.44512C36.3613 7.46917 36.4051 7.50466 36.4906 7.55961C36.3723 7.63861 36.2714 7.71073 36.1761 7.76912C31.2078 10.6153 26.2395 13.4576 21.2712 16.2961C21.1867 16.3402 21.0942 16.3653 20.9998 16.3696C20.9054 16.3739 20.8112 16.3575 20.7232 16.3213C15.7199 13.5805 10.7216 10.8298 5.72848 8.06909C5.66163 8.02902 5.59696 7.97978 5.46326 7.89048Z" fill="black"/>
<path d="M19.7414 21.6507V37C19.5222 36.8855 19.3457 36.8008 19.1693 36.7046C14.2185 33.973 9.26739 31.2436 4.3159 28.5165C4.03095 28.3608 3.93999 28.1902 3.94218 27.8605C3.95642 25.3326 3.94986 22.8047 3.94986 20.2768V19.7845C4.15151 19.899 4.29289 19.9677 4.42878 20.0502L14.563 26.11C15.4869 26.6629 15.9812 26.5599 16.6453 25.6898C17.5725 24.4686 18.5008 23.2512 19.4301 22.0376C19.5112 21.9289 19.6 21.8247 19.7414 21.6507Z" fill="black"/>
<path d="M37.9899 19.8051C37.9986 19.994 38.0074 20.1074 38.0074 20.2207C38.0074 22.6627 38.0074 25.1048 38.0074 27.5479C38.0074 27.7964 37.9647 27.9601 37.7301 28.0952C32.6398 31.0047 27.5521 33.9195 22.4669 36.8397C22.4088 36.8729 22.3474 36.8992 22.2477 36.9542V21.6667C22.697 22.2529 23.0948 22.7704 23.4905 23.289L25.4073 25.8008C25.9673 26.5336 26.523 26.6458 27.3044 26.1787C30.7179 24.1393 34.1314 22.0987 37.5449 20.057C37.6709 19.9746 37.8068 19.9116 37.9899 19.8051Z" fill="black"/>
<path d="M19.0991 18.3454C17.7642 20.0948 16.4688 21.7881 15.1613 23.5077L0 14.4403L3.13441 9.53909L19.0991 18.3454Z" fill="black"/>
</g>
<defs>
<clipPath id="clip0_15_199">
<rect width="42" height="37" fill="black"/>
</clipPath>
</defs>
</svg>
