<svg width="22" height="22" viewBox="0 0 22 22" fill="none" xmlns="http://www.w3.org/2000/svg">
<path d="M7.86165 0.000876144C8.16141 0.0221946 8.46117 0.0631034 8.76033 0.0613735C11.1062 0.0458174 13.4403 0.213487 15.7643 0.499853C15.9071 0.513143 16.0509 0.486772 16.179 0.423797C16.5006 0.261777 16.8576 0.177764 17.2198 0.178918C18.1256 0.176036 19.0314 0.173156 19.9372 0.178919C20.9348 0.185257 21.6705 0.719957 21.927 1.63149C21.9769 1.82569 22.0006 2.02538 21.9975 2.22554C22.0015 4.63208 22.0015 7.03862 21.9975 9.44517C21.9975 10.6673 21.1622 11.478 19.9075 11.482C19.0533 11.482 18.1985 11.4785 17.3442 11.482C16.9568 11.482 16.5806 11.4503 16.2305 11.2613C16.0451 11.5523 15.8822 11.8479 15.6802 12.1158C15.5024 12.3509 15.2767 12.5497 15.0836 12.7738C14.7205 13.195 14.3212 13.5949 14.0173 14.0524C12.9225 15.6916 12.1145 17.4709 11.4001 19.2911C11.3485 19.4224 11.3669 19.5855 11.3776 19.7324C11.4149 20.251 11.3811 20.7632 11.1673 21.2489C10.9433 21.7554 10.4866 22.0262 9.92321 21.998C8.29292 21.9139 7.18395 20.8381 7.0631 19.2496C6.98668 18.2355 7.24496 17.2796 7.52754 16.3202C7.73192 15.6288 7.89542 14.923 8.06603 14.2212C8.10217 14.0725 8.08736 13.9124 8.09743 13.7372C7.61817 13.8253 7.17329 13.9204 6.72365 13.9873C5.41622 14.1814 4.10523 14.2944 2.79425 14.0138C2.19652 13.8858 1.63611 13.668 1.19063 13.2469C0.41458 12.5145 0.242783 11.6335 0.560903 10.6454C0.585364 10.5878 0.594022 10.525 0.586024 10.4632C0.578029 10.4014 0.553651 10.3426 0.515287 10.2927C-0.163012 9.32878 -0.16775 8.24554 0.508771 7.28158C0.627252 7.11161 0.643838 6.97102 0.589338 6.77223C0.293136 5.69764 0.550241 4.74693 1.33991 3.942C1.40911 3.87746 1.46217 3.79835 1.49503 3.71075C1.5279 3.62316 1.53968 3.5294 1.52948 3.43668C1.48327 2.43123 1.90566 1.62976 2.73324 1.03628C3.55135 0.450301 4.50215 0.21464 5.48968 0.0867257C5.73612 0.055037 5.98374 0.0291086 6.23077 0.000298075L7.86165 0.000876144ZM15.1725 1.65108C13.9071 1.55428 12.64 1.41369 11.3699 1.3699C9.54703 1.30709 7.72066 1.29038 5.89666 1.30421C5.16392 1.31416 4.44471 1.49769 3.80133 1.83891C3.02588 2.24224 2.67577 2.8386 2.83098 3.6251C2.91984 4.06703 2.79544 4.35224 2.44592 4.62708C1.75281 5.17101 1.55021 5.95232 1.90861 6.70136C2.09996 7.10469 2.0425 7.40892 1.7463 7.73447C1.12487 8.41667 1.12072 9.13403 1.74215 9.81508C2.03835 10.1366 2.07271 10.4258 1.86892 10.8032C1.43528 11.6099 1.73327 12.3757 2.62128 12.662C3.09791 12.8059 3.59094 12.8922 4.08925 12.919C5.41741 13.0095 6.71181 12.7582 7.99909 12.4851C8.65903 12.3451 9.23129 12.6839 9.30238 13.3304C9.35391 13.7787 9.36872 14.2523 9.27512 14.6914C9.09148 15.5499 8.82135 16.3911 8.58439 17.2387C8.40667 17.8771 8.27989 18.5201 8.33439 19.1874C8.40488 20.0516 8.88947 20.5944 9.7366 20.7431C9.98126 20.7857 10.0482 20.7505 10.0642 20.5126C10.0843 20.2285 10.0719 19.9422 10.0796 19.6569C10.0849 19.4593 10.0518 19.2438 10.1193 19.0664C10.7597 17.3804 11.5067 15.7406 12.4255 14.1791C12.8994 13.3725 13.4154 12.5814 14.1304 11.947C14.4899 11.6383 14.7796 11.2604 14.9811 10.8372C15.1015 10.5812 15.1829 10.3094 15.2228 10.0306C15.253 9.80298 15.1713 9.56329 15.1707 9.32878C15.166 7.28792 15.165 5.24706 15.1677 3.20621L15.1725 1.65108ZM20.7203 5.83766C20.7203 4.61383 20.7203 3.39001 20.7203 2.16619C20.7203 1.69083 20.4383 1.42233 19.9502 1.42233C19.0671 1.42233 18.1838 1.42233 17.3004 1.42233C16.708 1.42233 16.4491 1.67182 16.4491 2.24455C16.4491 4.64188 16.4491 7.03939 16.4491 9.4371C16.4491 9.98909 16.7068 10.2438 17.2684 10.2438C18.1444 10.2438 19.0201 10.2438 19.8957 10.2438C20.4632 10.2438 20.7203 9.99312 20.7203 9.44575C20.7203 8.24382 20.7203 7.04112 20.7203 5.83766Z" fill="#797979"/>
</svg>
