<svg width="36" height="34" viewBox="0 0 36 34" fill="none" xmlns="http://www.w3.org/2000/svg">
<path d="M0.0023997 4.08049C0.0023997 2.99828 0.508079 1.96039 1.40819 1.19515C2.30831 0.429908 3.52913 0 4.80208 0H31.2003C32.4733 0 33.6941 0.429908 34.5942 1.19515C35.4943 1.96039 36 2.99828 36 4.08049V31.5891C35.9999 31.9305 35.899 32.2664 35.7067 32.566C35.5143 32.8657 35.2366 33.1195 34.8989 33.3042C34.5612 33.489 34.1745 33.5987 33.774 33.6235C33.3735 33.6482 32.9721 33.5871 32.6066 33.4458L18.9947 28.1901L17.8188 20.8656C17.9349 20.8251 18.0651 20.8251 18.1812 20.8656L23.9888 22.8732C24.0644 22.899 24.1464 22.908 24.2272 22.8994C24.308 22.8909 24.3848 22.8649 24.4506 22.8241C24.5164 22.7833 24.5688 22.729 24.6031 22.6662C24.6373 22.6034 24.6522 22.5342 24.6464 22.4652L24.1952 17.1524C24.186 17.0466 24.2256 16.942 24.3056 16.8606L28.3469 12.7862C28.3995 12.733 28.4352 12.6693 28.4507 12.6012C28.4661 12.533 28.4609 12.4625 28.4354 12.3965C28.41 12.3306 28.3651 12.2712 28.3051 12.2241C28.2451 12.1769 28.1719 12.1436 28.0925 12.1272L22.0089 10.85C21.8885 10.8244 21.7844 10.76 21.7186 10.6705L18.4068 6.14523C18.3636 6.08663 18.3036 6.03831 18.2325 6.00483C18.1613 5.97134 18.0813 5.95377 18 5.95377C17.9187 5.95377 17.8387 5.97134 17.7675 6.00483C17.6964 6.03831 17.6364 6.08663 17.5932 6.14523L14.2838 10.6705C14.2186 10.7596 14.1155 10.8239 13.9959 10.85L7.90987 12.1272C7.83048 12.1436 7.75732 12.1769 7.69731 12.2241C7.63731 12.2712 7.59244 12.3306 7.56697 12.3965C7.5415 12.4625 7.53626 12.533 7.55175 12.6012C7.56724 12.6693 7.60295 12.733 7.65549 12.7862L11.6968 16.8606C11.7768 16.942 11.8164 17.0466 11.8072 17.1524L11.3536 22.4631C11.3476 22.5324 11.3624 22.6019 11.3968 22.6649C11.4312 22.728 11.4839 22.7825 11.55 22.8234C11.6161 22.8642 11.6934 22.8901 11.7745 22.8984C11.8556 22.9068 11.9379 22.8974 12.0136 22.8712L17.8188 20.8636L17.0029 28.1881L3.39577 33.4458C3.03016 33.5876 2.62853 33.649 2.22771 33.6245C1.8269 33.6 1.43974 33.4903 1.10175 33.3055C0.763759 33.1207 0.485764 32.8667 0.293266 32.5669C0.100767 32.267 -7.17223e-05 31.9308 3.82738e-08 31.5891V4.08049H0.0023997Z" fill="#222222"/>
</svg>
