<svg width="22" height="22" viewBox="0 0 22 22" fill="none" xmlns="http://www.w3.org/2000/svg">
<path d="M14.1383 21.9991C13.8386 21.9778 13.5388 21.9369 13.2397 21.9386C10.8938 21.9542 8.55971 21.7865 6.23572 21.5001C6.09288 21.4869 5.94909 21.5132 5.82104 21.5762C5.49945 21.7382 5.14236 21.8222 4.78019 21.8211C3.87441 21.824 2.96862 21.8268 2.06284 21.8211C1.06524 21.8147 0.329479 21.28 0.0729696 20.3685C0.0230801 20.1743 -0.000617498 19.9746 0.00247372 19.7745C-0.00147562 17.3679 -0.00147562 14.9614 0.00247372 12.5548C0.00247372 11.3327 0.837757 10.522 2.09246 10.518C2.94671 10.518 3.80154 10.5215 4.65578 10.518C5.04321 10.518 5.41939 10.5497 5.7695 10.7387C5.95492 10.4477 6.11783 10.1521 6.31984 9.8842C6.49756 9.64911 6.72326 9.45033 6.91638 9.22619C7.27953 8.805 7.6788 8.40513 7.98271 7.94763C9.07746 6.30838 9.8855 4.52911 10.5999 2.70893C10.6515 2.57756 10.6331 2.4145 10.6224 2.26757C10.5851 1.749 10.6189 1.23678 10.8327 0.75105C11.0567 0.244581 11.5134 -0.0262273 12.0768 0.00200589C13.7071 0.0861293 14.8161 1.16187 14.9369 2.75042C15.0133 3.76451 14.755 4.72041 14.4725 5.67976C14.2681 6.37118 14.1046 7.07701 13.934 7.77881C13.8978 7.92747 13.9126 8.08765 13.9026 8.26281C14.3818 8.17465 14.8267 8.07958 15.2763 8.01274C16.5838 7.81857 17.8948 7.70563 19.2057 7.98624C19.8035 8.11415 20.3639 8.33195 20.8094 8.75314C21.5854 9.48548 21.7572 10.3665 21.4391 11.3546C21.4146 11.4122 21.406 11.475 21.414 11.5368C21.422 11.5986 21.4464 11.6574 21.4847 11.7073C22.163 12.6712 22.1678 13.7545 21.4912 14.7184C21.3727 14.8884 21.3562 15.029 21.4107 15.2278C21.7069 16.3024 21.4498 17.2531 20.6601 18.058C20.5909 18.1225 20.5378 18.2016 20.505 18.2892C20.4721 18.3768 20.4603 18.4706 20.4705 18.5633C20.5167 19.5688 20.0943 20.3702 19.2668 20.9637C18.4487 21.5497 17.4979 21.7854 16.5103 21.9133C16.2639 21.945 16.0163 21.9709 15.7692 21.9997L14.1383 21.9991ZM6.82752 20.3489C8.09289 20.4457 9.36004 20.5863 10.6302 20.6301C12.453 20.6929 14.2793 20.7096 16.1033 20.6958C16.8361 20.6858 17.5553 20.5023 18.1987 20.1611C18.9741 19.7578 19.3242 19.1614 19.169 18.3749C19.0802 17.933 19.2046 17.6478 19.5541 17.3729C20.2472 16.829 20.4498 16.0477 20.0914 15.2986C19.9 14.8953 19.9575 14.5911 20.2537 14.2655C20.8751 13.5833 20.8793 12.866 20.2578 12.1849C19.9616 11.8634 19.9273 11.5742 20.1311 11.1968C20.5647 10.3901 20.2667 9.62434 19.3787 9.33797C18.9021 9.19406 18.4091 9.10775 17.9108 9.08099C16.5826 8.99053 15.2882 9.24175 14.0009 9.51486C13.341 9.65488 12.7687 9.31608 12.6976 8.6696C12.6461 8.22132 12.6313 7.7477 12.7249 7.30864C12.9085 6.45012 13.1787 5.60889 13.4156 4.76132C13.5933 4.1229 13.7201 3.47987 13.6656 2.81265C13.5951 1.94837 13.1105 1.4056 12.2634 1.25694C12.0187 1.2143 11.9518 1.24945 11.9358 1.48742C11.9157 1.77148 11.9281 2.05784 11.9204 2.34305C11.9151 2.54069 11.9482 2.75618 11.8807 2.93365C11.2403 4.61957 10.4933 6.2594 9.57449 7.82087C9.10057 8.62753 8.58459 9.41864 7.86956 10.053C7.5101 10.3617 7.22043 10.7396 7.01887 11.1628C6.89852 11.4188 6.8171 11.6906 6.77717 11.9694C6.74696 12.197 6.82871 12.4367 6.8293 12.6712C6.83404 14.7121 6.83503 16.7529 6.83226 18.7938L6.82752 20.3489ZM1.27969 16.1623C1.27969 17.3862 1.27969 18.61 1.27969 19.8338C1.27969 20.3092 1.56167 20.5777 2.04981 20.5777C2.93288 20.5777 3.81615 20.5777 4.69962 20.5777C5.29202 20.5777 5.5509 20.3282 5.5509 19.7554C5.5509 17.3581 5.5509 14.9606 5.5509 12.5629C5.5509 12.0109 5.29321 11.7562 4.73161 11.7562C3.85565 11.7562 2.97988 11.7562 2.10431 11.7562C1.53679 11.7562 1.27969 12.0069 1.27969 12.5543C1.27969 13.7562 1.27969 14.9589 1.27969 16.1623Z" fill="#797979"/>
</svg>
