<svg width="12" height="13" viewBox="0 0 12 13" fill="none" xmlns="http://www.w3.org/2000/svg">
<path d="M5.95834 0C4.37863 0.00149595 2.8641 0.543288 1.74707 1.5065C0.630044 2.46972 0.00173483 3.7757 0 5.13789C0 7.85172 5.00501 11.5772 5.57343 11.9934L5.95834 12.2739L6.34325 11.9934C6.91168 11.5772 11.9167 7.85172 11.9167 5.13789C11.915 3.7757 11.2866 2.46972 10.1696 1.5065C9.05258 0.543288 7.53806 0.00149595 5.95834 0ZM5.95834 7.70683C5.36912 7.70683 4.79313 7.55617 4.3032 7.27389C3.81328 6.99161 3.43143 6.59039 3.20595 6.12098C2.98046 5.65157 2.92146 5.13504 3.03642 4.63671C3.15137 4.13839 3.43511 3.68064 3.85175 3.32137C4.2684 2.9621 4.79923 2.71743 5.37714 2.61831C5.95504 2.51918 6.55405 2.57006 7.09842 2.76449C7.6428 2.95893 8.10808 3.2882 8.43543 3.71066C8.76279 4.13312 8.93752 4.6298 8.93752 5.13789C8.93657 5.81896 8.62239 6.47191 8.06389 6.95351C7.50539 7.4351 6.74818 7.70602 5.95834 7.70683Z" fill="#44CF4E"/>
<path d="M5.95835 6.67925C6.94556 6.67925 7.74585 5.98916 7.74585 5.13788C7.74585 4.28661 6.94556 3.59652 5.95835 3.59652C4.97114 3.59652 4.17084 4.28661 4.17084 5.13788C4.17084 5.98916 4.97114 6.67925 5.95835 6.67925Z" fill="#44CF4E"/>
</svg>
