<svg width="35" height="35" viewBox="0 0 35 35" fill="none" xmlns="http://www.w3.org/2000/svg">
<path d="M35 17.5C35 27.165 27.165 35 17.5 35C7.83502 35 0 27.165 0 17.5C0 7.83502 7.83502 0 17.5 0C27.165 0 35 7.83502 35 17.5Z" fill="#222222"/>
<path d="M14.77 21.63C14.77 20.7667 14.91 20.0083 15.19 19.355C15.47 18.7017 15.8317 18.1183 16.275 17.605C16.7183 17.0917 17.185 16.6133 17.675 16.17C18.1883 15.7267 18.6667 15.295 19.11 14.875C19.5533 14.455 19.915 14.0117 20.195 13.545C20.475 13.0783 20.615 12.5533 20.615 11.97C20.615 10.99 20.2183 10.1967 19.425 9.59C18.6317 8.98333 17.57 8.68 16.24 8.68C14.9567 8.68 13.8367 8.91333 12.88 9.38C11.9467 9.84667 11.165 10.5117 10.535 11.375L7.14 9.17C8.12 7.84 9.40333 6.80167 10.99 6.055C12.5767 5.285 14.455 4.9 16.625 4.9C18.3283 4.9 19.8217 5.15667 21.105 5.67C22.3883 6.16 23.3917 6.88333 24.115 7.84C24.8383 8.77333 25.2 9.91667 25.2 11.27C25.2 12.2033 25.0483 13.02 24.745 13.72C24.465 14.42 24.0917 15.0383 23.625 15.575C23.1817 16.0883 22.7033 16.5783 22.19 17.045C21.6767 17.4883 21.1867 17.9317 20.72 18.375C20.2767 18.8183 19.915 19.2967 19.635 19.81C19.355 20.3233 19.215 20.93 19.215 21.63H14.77ZM17.01 29.995C16.1933 29.995 15.5167 29.7267 14.98 29.19C14.4667 28.6533 14.21 28.0117 14.21 27.265C14.21 26.5183 14.4667 25.8883 14.98 25.375C15.5167 24.8383 16.1933 24.57 17.01 24.57C17.8267 24.57 18.4917 24.8383 19.005 25.375C19.5183 25.8883 19.775 26.5183 19.775 27.265C19.775 28.0117 19.5183 28.6533 19.005 29.19C18.4917 29.7267 17.8267 29.995 17.01 29.995Z" fill="white"/>
</svg>
