<svg width="42" height="35" viewBox="0 0 42 35" fill="none" xmlns="http://www.w3.org/2000/svg">
<path d="M7.75848 34.4954C8.22048 32.926 8.66214 31.4233 9.10481 29.9232C9.88907 27.2672 10.676 24.612 11.4657 21.9577C11.537 21.719 11.4902 21.5803 11.2724 21.4214C7.62177 18.7583 3.97591 16.0911 0.334804 13.4199C0.245252 13.354 0.159769 13.2838 0 13.1565C0.632971 13.1162 1.17741 13.0775 1.72286 13.0468L10.9254 12.5307C12.2229 12.4579 13.5193 12.3762 14.8178 12.32C15.1231 12.3069 15.1537 12.1269 15.23 11.9628C16.5366 9.13529 17.8419 6.30749 19.1458 3.47939C19.6248 2.43897 20.1051 1.39913 20.5868 0.359874C20.6347 0.258055 20.6886 0.158872 20.772 0C20.8738 0.190471 20.944 0.323009 21.0071 0.45906C22.771 4.28311 24.5329 8.10862 26.2927 11.9356C26.4209 12.2156 26.5807 12.3113 26.9328 12.3297C30.0875 12.4938 33.23 12.6808 36.3785 12.8563C37.7971 12.9371 39.2167 13.0135 40.6353 13.0925C40.9131 13.1083 41.1909 13.1302 41.5695 13.1565C41.0749 13.519 40.6536 13.828 40.2384 14.1343C36.942 16.5441 33.6441 18.9511 30.345 21.3556C30.0641 21.5592 30.0071 21.7312 30.0977 22.0332C31.3025 26.065 32.4973 30.0985 33.6818 34.1338C33.7082 34.2216 33.7245 34.3155 33.7612 34.47C33.5861 34.3822 33.4559 34.3199 33.3287 34.2514C29.2676 32.0407 25.2083 29.8258 21.1506 27.6069C20.8697 27.4533 20.6804 27.4498 20.3965 27.6069C16.3538 29.8229 12.306 32.0319 8.25305 34.2339C8.11465 34.3085 7.97523 34.3804 7.75848 34.4954Z" fill="#222222"/>
</svg>
