<svg width="25" height="25" viewBox="0 0 25 25" fill="none" xmlns="http://www.w3.org/2000/svg">
<path d="M18.3471 13.3833L24.8731 19.9094L21.57 23.2125C20.9943 23.7858 20.3105 24.239 19.5582 24.5459C18.8059 24.8527 18.0001 25.0071 17.1877 25C9.6377 25 0.000203231 15.3625 0.000203231 7.8125C-0.00640439 6.99998 0.148174 6.19422 0.454994 5.44183C0.761815 4.68944 1.21479 4.00536 1.7877 3.42917L5.09083 0.127083L11.6169 6.65312L7.31999 10.95C8.59741 13.9857 11.0091 16.403 14.0419 17.6875L18.3471 13.3833ZM22.9169 10.4167H25.0002C24.9972 7.65493 23.8987 5.00717 21.9459 3.05432C19.993 1.10147 17.3453 0.00303291 14.5835 0V2.08333C16.7929 2.08581 18.9111 2.96458 20.4734 4.52685C22.0356 6.08912 22.9144 8.20729 22.9169 10.4167ZM18.7502 10.4167H20.8335C20.8319 8.75957 20.1729 7.17082 19.0011 5.99908C17.8294 4.82733 16.2406 4.16832 14.5835 4.16667V6.25C15.6886 6.25 16.7484 6.68899 17.5298 7.47039C18.3112 8.25179 18.7502 9.3116 18.7502 10.4167Z" fill="white"/>
</svg>
