<svg width="25" height="25" viewBox="0 0 25 25" fill="none" xmlns="http://www.w3.org/2000/svg">
<g clip-path="url(#clip0_15_171)">
<path fill-rule="evenodd" clip-rule="evenodd" d="M21.3156 3.63333C18.976 1.29167 15.8656 0.00104167 12.552 0C5.72391 0 0.166618 5.55625 0.163493 12.3875C0.162451 14.5708 0.733284 16.7021 1.81766 18.5812L0.0593262 25L6.62599 23.2771C8.43537 24.2646 10.4729 24.7844 12.5458 24.7854H12.551C19.3781 24.7854 24.9364 19.2281 24.9395 12.3969C24.9416 9.0875 23.6541 5.97396 21.3156 3.63333ZM12.552 22.6927H12.5479C10.7 22.6927 8.88849 22.1958 7.30724 21.2573L6.9312 21.0344L3.03433 22.0562L4.07495 18.2562L3.83016 17.8667C2.79891 16.2271 2.25516 14.3323 2.2562 12.3875C2.25828 6.71042 6.87808 2.09167 12.5572 2.09167C15.3072 2.09167 17.8927 3.16458 19.8364 5.11042C21.7802 7.05729 22.85 9.64375 22.8489 12.3948C22.8458 18.074 18.227 22.6927 12.552 22.6927ZM18.2 14.9812C17.8906 14.826 16.3687 14.0771 16.0843 13.974C15.801 13.8708 15.5947 13.8187 15.3875 14.1281C15.1802 14.4375 14.5885 15.1354 14.4072 15.3427C14.227 15.549 14.0458 15.575 13.7364 15.4198C13.427 15.2646 12.4291 14.9385 11.2468 13.8833C10.327 13.0625 9.70516 12.049 9.52495 11.7385C9.34474 11.4281 9.5062 11.2615 9.66037 11.1073C9.79995 10.9688 9.96974 10.7458 10.125 10.5646C10.2812 10.3854 10.3322 10.2563 10.4364 10.049C10.5395 9.84271 10.4885 9.66146 10.4104 9.50625C10.3322 9.35208 9.71349 7.82812 9.4562 7.20833C9.20516 6.60417 8.94995 6.68646 8.75933 6.67708C8.57912 6.66771 8.37287 6.66667 8.16558 6.66667C7.95933 6.66667 7.62391 6.74375 7.34058 7.05417C7.05724 7.36458 6.25724 8.11354 6.25724 9.63646C6.25724 11.1604 7.36662 12.6323 7.52078 12.8385C7.67495 13.0448 9.70308 16.1719 12.8083 17.5125C13.5468 17.8312 14.1239 18.0219 14.5729 18.1646C15.3145 18.4 15.9895 18.3667 16.5229 18.2875C17.1177 18.199 18.3541 17.5385 18.6125 16.8156C18.8708 16.0927 18.8708 15.4719 18.7927 15.3437C18.7156 15.2135 18.5093 15.1365 18.2 14.9812Z" fill="white"/>
</g>
<defs>
<clipPath id="clip0_15_171">
<rect width="25" height="25" fill="white"/>
</clipPath>
</defs>
</svg>
